<svg width="39" height="39" viewBox="0 0 39 39" fill="none" xmlns="http://www.w3.org/2000/svg">
<circle cx="19.2854" cy="19.4224" r="19.0474" fill="#AF4B31"/>
<path fill-rule="evenodd" clip-rule="evenodd" d="M9.70099 9.9595C10.5761 9.08439 11.9949 9.08439 12.8701 9.9595L28.7484 25.8378C29.6235 26.7129 29.6235 28.1318 28.7484 29.0069C27.8733 29.882 26.4544 29.882 25.5793 29.0069L9.70099 13.1286C8.82588 12.2535 8.82588 10.8346 9.70099 9.9595Z" fill="#F4F1DE"/>
<path fill-rule="evenodd" clip-rule="evenodd" d="M9.82257 29.0069C8.94746 28.1318 8.94746 26.7129 9.82257 25.8378L25.7009 9.9595C26.576 9.08439 27.9948 9.08439 28.8699 9.9595C29.7451 10.8346 29.7451 12.2535 28.8699 13.1286L12.9916 29.0069C12.1165 29.882 10.6977 29.882 9.82257 29.0069Z" fill="#F4F1DE"/>
</svg>
