<svg width="39" height="39" viewBox="0 0 39 39" fill="none" xmlns="http://www.w3.org/2000/svg">
<circle cx="19.2855" cy="19.2328" r="17.4601" fill="#F4F1DE"/>
<path d="M19.2854 0.185448C8.76583 0.185448 0.238037 8.71324 0.238037 19.2328C0.238037 29.7524 8.76583 38.2802 19.2854 38.2802C29.805 38.2802 38.3328 29.7524 38.3328 19.2328C38.3328 8.71324 29.805 0.185448 19.2854 0.185448ZM25.6936 6.13534C26.252 6.13975 26.7941 6.34572 27.2037 6.7553L30.3735 9.92383C31.2496 10.8 31.1896 12.2763 30.2419 13.2262C29.292 14.1762 27.8133 14.2327 26.9396 13.3589L23.771 10.1904C22.8948 9.3166 22.9561 7.83561 23.9037 6.888C24.4072 6.38327 25.0608 6.13036 25.6936 6.13534V6.13534ZM20.4711 10.3219L26.8093 16.6589L16.5089 26.9569L10.1706 20.6187L20.4711 10.3219ZM8.52542 21.8188L15.2111 28.5045L6.85132 30.1786L8.52542 21.8188Z" fill="#5B5F7D"/>
</svg>
