<svg width="338" height="212" viewBox="0 0 338 212" fill="none" xmlns="http://www.w3.org/2000/svg">
<path d="M121.859 105C121.324 105 120.923 104.9 120.655 104.699C120.421 104.499 120.304 104.164 120.304 103.696V97.1276C119.87 96.8267 119.051 96.5593 117.847 96.3253C116.644 96.0913 115.507 95.9409 114.438 95.874C114.07 96.576 113.802 97.4284 113.635 98.4313L113.435 99.4341C113.401 99.6681 113.301 100.186 113.134 100.989C112.967 101.791 112.783 102.493 112.582 103.095C112.382 103.663 112.181 104.114 111.981 104.448C110.71 104.448 109.975 104.114 109.774 103.446C110.142 102.911 110.56 101.34 111.028 98.7321L112.683 89.556C113.418 85.2103 114.087 81.4997 114.688 78.4243C115.323 75.3489 115.992 72.7749 116.694 70.7023C117.463 68.3957 118.198 67.2424 118.9 67.2424C119.602 67.2424 120.137 67.3761 120.505 67.6436C120.505 68.9807 120.822 72.2066 121.458 77.3211C122.126 82.3354 122.46 85.7619 122.46 87.6004C122.46 89.3721 122.644 91.9127 123.012 95.2221C123.346 98.5984 123.513 101.289 123.513 103.295C123.513 104.432 122.962 105 121.859 105ZM119.251 94.2193C119.519 94.2193 119.853 94.1691 120.254 94.0689C120.154 92.598 119.987 90.7761 119.753 88.6033C118.984 81.0484 118.599 76.4186 118.599 74.7137V74.3126C118.265 74.6469 117.797 76.1679 117.195 78.8756C116.627 81.5499 116.092 84.4247 115.591 87.5001C115.089 90.5756 114.822 92.6147 114.789 93.6176C116.193 94.0187 117.68 94.2193 119.251 94.2193ZM131.115 105.301C130.246 105.301 129.812 103.111 129.812 98.7321L129.912 90.8096C129.945 88.4696 129.962 85.8454 129.962 82.9371C129.962 81.8674 129.862 80.2127 129.661 77.973C129.494 75.5327 129.411 74.0451 129.411 73.5103C129.411 73.0757 129.594 72.6913 129.962 72.357C130.33 72.0227 130.731 71.8556 131.166 71.8556C132.336 71.8556 133.455 72.123 134.525 72.6579C135.628 73.1593 136.598 73.878 137.434 74.814C139.205 76.8531 140.375 79.0929 140.944 81.5331C141.244 82.77 141.395 83.9901 141.395 85.1936C141.395 85.6281 141.378 86.0293 141.345 86.397L141.295 87.7509V90.5087C141.295 92.6481 141.228 94.3363 141.094 95.5731C140.893 97.2446 140.509 98.7321 139.941 100.036C139.272 101.44 138.303 102.693 137.032 103.797C136.431 104.298 135.662 104.799 134.726 105.301H131.115ZM133.322 102.744C133.99 102.744 134.609 102.576 135.177 102.242C135.745 101.874 136.23 101.39 136.631 100.788C136.966 100.253 137.266 99.5846 137.534 98.7823C137.835 97.9466 138.052 97.1443 138.186 96.3754C138.487 94.8711 138.67 93.3334 138.737 91.7623C138.771 91.3611 138.787 90.7761 138.787 90.0073C138.787 79.9119 136.832 74.6469 132.921 74.2123C132.687 75.7166 132.57 77.4549 132.57 79.4271C132.57 81.5331 132.703 85.2103 132.971 90.4586C133.205 95.1051 133.322 98.799 133.322 101.54V102.744ZM148.45 105.301C147.581 105.301 147.146 103.111 147.146 98.7321L147.247 90.8096C147.28 88.4696 147.297 85.8454 147.297 82.9371C147.297 81.8674 147.196 80.2127 146.996 77.973C146.829 75.5327 146.745 74.0451 146.745 73.5103C146.745 73.0757 146.929 72.6913 147.297 72.357C147.664 72.0227 148.066 71.8556 148.5 71.8556C149.67 71.8556 150.79 72.123 151.86 72.6579C152.963 73.1593 153.932 73.878 154.768 74.814C156.54 76.8531 157.71 79.0929 158.278 81.5331C158.579 82.77 158.729 83.9901 158.729 85.1936C158.729 85.6281 158.713 86.0293 158.679 86.397L158.629 87.7509V90.5087C158.629 92.6481 158.562 94.3363 158.428 95.5731C158.228 97.2446 157.843 98.7321 157.275 100.036C156.607 101.44 155.637 102.693 154.367 103.797C153.765 104.298 152.996 104.799 152.06 105.301H148.45ZM150.656 102.744C151.325 102.744 151.943 102.576 152.512 102.242C153.08 101.874 153.565 101.39 153.966 100.788C154.3 100.253 154.601 99.5846 154.868 98.7823C155.169 97.9466 155.386 97.1443 155.52 96.3754C155.821 94.8711 156.005 93.3334 156.072 91.7623C156.105 91.3611 156.122 90.7761 156.122 90.0073C156.122 79.9119 154.166 74.6469 150.255 74.2123C150.021 75.7166 149.904 77.4549 149.904 79.4271C149.904 81.5331 150.038 85.2103 150.305 90.4586C150.539 95.1051 150.656 98.799 150.656 101.54V102.744ZM174.39 105.451C173.889 105.451 173.287 105.201 172.585 104.699C172.852 101.925 173.07 97.6624 173.237 91.9127C173.404 85.929 173.521 82.3354 173.588 81.132V79.9286C173.721 76.6526 173.788 74.3794 173.788 73.1091C173.788 72.6411 173.972 72.2734 174.34 72.006C174.741 71.7386 175.192 71.6049 175.694 71.6049C176.864 71.6049 178.117 71.7051 179.454 71.9057C180.324 72.0394 181.009 72.2567 181.51 72.5576C182.045 72.8584 182.313 73.2261 182.313 73.6607C182.313 74.5967 181.46 75.0647 179.755 75.0647C179.12 74.7304 178.251 74.5633 177.148 74.5633H176.546V75.165C176.546 76.4687 176.479 78.1234 176.346 80.1291C176.178 82.0011 176.095 83.6893 176.095 85.1936V86.5474H176.496H176.997C178.635 86.5474 179.454 86.982 179.454 87.8511C179.454 88.2857 179.271 88.6367 178.903 88.9041C178.569 89.1716 178.151 89.3053 177.649 89.3053C176.847 89.3053 176.195 89.2217 175.694 89.0546V103.245C175.694 104.716 175.259 105.451 174.39 105.451ZM188.229 104.95C185.321 104.95 183.867 104.448 183.867 103.446C183.867 102.643 184.385 102.242 185.421 102.242H185.973L186.474 102.292C186.742 102.292 186.926 102.209 187.026 102.042C187.126 101.874 187.176 101.574 187.176 101.139C187.176 100.571 187.143 99.6849 187.076 98.4814C186.976 97.6791 186.859 96.2417 186.725 94.1691C186.424 89.0546 186.274 85.1936 186.274 82.5861C186.274 81.6501 186.291 80.7977 186.324 80.0289L186.374 77.4716C186.374 76.3684 186.324 75.4491 186.224 74.7137C185.689 74.8474 185.304 74.9143 185.07 74.9143C184.268 74.9143 183.867 74.5131 183.867 73.7109C183.867 73.3097 184.118 72.9587 184.619 72.6579C185.121 72.357 185.756 72.1397 186.525 72.006C187.862 71.7386 189.048 71.6049 190.085 71.6049C190.486 71.6049 190.82 71.7553 191.088 72.0561C191.388 72.3236 191.539 72.6411 191.539 73.0089C191.539 73.3766 191.422 73.6941 191.188 73.9616C190.987 74.229 190.72 74.3627 190.386 74.3627C190.185 74.3627 190.018 74.346 189.884 74.3126H189.483C189.149 74.3126 188.898 74.3961 188.731 74.5633C188.597 74.697 188.53 74.9644 188.53 75.3656C188.53 78.6081 188.731 83.4887 189.132 90.0073C189.199 91.2107 189.333 92.9824 189.533 95.3224C189.7 96.8601 189.784 98.4313 189.784 100.036V101.941C189.984 101.908 190.319 101.891 190.787 101.891C192.191 101.891 192.893 102.476 192.893 103.646V103.947L191.639 104.799C191.606 104.799 191.489 104.816 191.288 104.85C191.121 104.85 190.787 104.85 190.285 104.85C189.216 104.916 188.53 104.95 188.229 104.95ZM205.812 105.852C205.077 105.852 204.408 105.05 203.807 103.446C203.105 101.707 202.586 99.9189 202.252 98.0803L201.901 96.3754C200.932 91.5951 200.313 88.8707 200.046 88.2021H199.444C199.444 89.1716 199.427 90.0574 199.394 90.8597V93.6176C199.394 98.097 199.712 101.59 200.347 104.097L199.795 105.451H198.391L197.739 104.699L197.789 101.34C197.789 98.331 197.639 93.768 197.338 87.6506C197.071 81.132 196.937 76.569 196.937 73.9616C196.937 72.357 197.489 71.5547 198.592 71.5547C200.397 71.5547 201.868 72.0227 203.004 72.9587C204.174 73.8947 204.759 75.1984 204.759 76.8699V80.3799C204.759 80.8813 204.676 81.4663 204.509 82.1349C204.341 82.77 204.158 83.2881 203.957 83.6893L203.004 85.4944L202.202 86.9987L202.453 88.2021L203.155 91.7623C203.623 94.3363 204.074 96.4256 204.509 98.0301C204.943 99.6347 205.478 101.089 206.113 102.393L206.414 102.994C206.748 103.663 206.915 104.198 206.915 104.599C206.915 104.933 206.815 105.217 206.615 105.451C206.414 105.719 206.147 105.852 205.812 105.852ZM199.645 85.7451C200.38 85.3774 200.999 84.3746 201.5 82.7366C202.035 81.0651 202.302 79.5274 202.302 78.1234C202.302 77.0537 202.169 76.0509 201.901 75.1149C201.734 74.58 201.45 74.1789 201.049 73.9114C200.681 73.6106 200.213 73.4601 199.645 73.4601L199.544 73.7109L199.444 74.1621L199.544 80.079C199.611 81.8173 199.645 83.706 199.645 85.7451ZM212.728 105.702C212.126 105.602 211.608 105.384 211.174 105.05C210.773 104.716 210.539 104.281 210.472 103.746L211.023 102.894C211.224 102.894 211.541 102.961 211.976 103.095C212.477 103.195 212.862 103.245 213.129 103.245C213.731 103.245 214.266 102.978 214.734 102.443C215.235 101.908 215.603 101.206 215.837 100.337C216.272 98.7321 216.489 97.2947 216.489 96.0244C216.489 93.8181 215.787 91.4949 214.383 89.0546L213.831 88.1019C213.196 86.9987 212.661 86.0126 212.227 85.1434C211.792 84.2743 211.424 83.3383 211.124 82.3354C210.722 81.0317 210.522 79.728 210.522 78.4243C210.522 76.9534 210.856 75.4157 211.525 73.8111C211.859 73.0423 212.327 72.4239 212.929 71.9559C213.564 71.4544 214.266 71.2037 215.035 71.2037C215.636 71.2037 216.188 71.4043 216.689 71.8054C217.224 72.1731 217.492 72.6244 217.492 73.1593C217.492 73.4601 217.375 73.6941 217.141 73.8613C216.907 74.0284 216.623 74.112 216.288 74.112C215.921 74.112 215.57 74.0117 215.235 73.8111C214.5 73.8446 213.915 74.4964 213.48 75.7667C213.113 76.9367 212.929 77.9061 212.929 78.675C212.929 79.6444 213.079 80.6306 213.38 81.6334C213.681 82.6029 214.065 83.4887 214.533 84.291L215.636 86.2967L217.391 89.6061C217.859 90.5421 218.227 91.6286 218.495 92.8654C218.795 94.1023 218.946 95.3559 218.946 96.6261C218.946 98.6653 218.478 100.604 217.542 102.443C217.074 103.379 216.405 104.131 215.536 104.699C214.7 105.267 213.764 105.552 212.728 105.552V105.702ZM227.022 104.198L226.972 102.242C226.939 101.674 226.922 101.039 226.922 100.337L226.972 98.6319C226.872 98.2641 226.621 94.6037 226.22 87.6506C225.819 80.6974 225.585 76.2347 225.518 74.2624C223.579 74.1956 222.342 73.995 221.807 73.6607C221.44 73.3933 221.256 73.0924 221.256 72.7581C221.256 72.4907 221.423 72.2567 221.757 72.0561C222.125 71.8221 222.493 71.7051 222.86 71.7051C223.796 71.7051 224.933 71.772 226.27 71.9057C227.54 72.0729 228.677 72.1564 229.68 72.1564H230.081H230.482C231.518 72.1564 232.037 72.5576 232.037 73.3599C232.037 73.761 231.869 74.0953 231.535 74.3627C231.201 74.5967 230.816 74.7137 230.382 74.7137C230.081 74.7137 229.646 74.6636 229.078 74.5633L228.075 74.3627L228.025 74.6134L227.975 74.8641C227.975 77.8393 228.259 82.5861 228.827 89.1047C229.362 95.2221 229.63 99.969 229.63 103.345C229.63 103.746 229.446 104.097 229.078 104.398C228.744 104.699 228.359 104.85 227.925 104.85L227.022 104.198ZM248.507 105.401C246.97 105.401 246.201 104.983 246.201 104.148L246.301 97.98L246.401 91.8124C246.401 89.5727 246.351 86.1797 246.251 81.6334C246.151 77.1206 246.101 73.7276 246.101 71.4544V71.1536C246.101 70.2844 246.184 69.4821 246.351 68.7467C246.552 67.8441 247.087 67.3929 247.956 67.3929C250.296 67.3929 252.151 68.145 253.522 69.6493C254.892 71.1536 255.578 73.1426 255.578 75.6163C255.578 77.1206 255.176 78.6917 254.374 80.3297C253.572 81.9677 252.619 83.1879 251.516 83.9901C253.455 85.2939 254.876 86.982 255.778 89.0546C256.714 91.0937 257.182 93.3501 257.182 95.8239C257.182 96.9939 256.781 98.448 255.979 100.186C255.009 102.259 253.689 103.746 252.017 104.649C251.015 105.15 249.911 105.401 248.708 105.401H248.507ZM249.009 83.238C249.878 83.0374 250.613 82.3187 251.215 81.0819C251.717 80.1459 252.185 79.0093 252.619 77.6721C252.719 77.3044 252.887 76.8364 253.121 76.2681V74.5131C253.121 73.5103 252.753 72.5409 252.017 71.6049C251.282 70.6689 250.446 70.2009 249.51 70.2009C249.042 70.2009 248.808 70.719 248.808 71.7553C248.808 73.9616 248.842 75.9339 248.909 77.6721L249.009 83.238ZM249.209 102.794C250.847 102.56 252.151 101.808 253.121 100.537C254.09 99.267 254.575 97.746 254.575 95.9743C254.575 94.4366 254.441 93.0326 254.174 91.7623C253.94 90.4586 253.622 89.4724 253.221 88.8039C252.853 88.1687 252.485 87.6339 252.118 87.1993C251.75 86.7647 251.432 86.4806 251.165 86.3469L250.764 86.1964H248.959C249.126 90.0407 249.209 95.5731 249.209 102.794ZM267.835 105.953C266.966 105.953 266.164 105.669 265.428 105.1C264.693 104.565 264.091 103.83 263.623 102.894C262.654 100.855 262.052 98.6319 261.818 96.225C261.517 93.9519 261.367 91.7623 261.367 89.6563C261.367 89.2551 261.383 88.9209 261.417 88.6534V87.7509C261.417 87.5837 261.4 87.5001 261.367 87.5001V86.5976L261.417 83.0876C261.45 82.0179 261.584 80.313 261.818 77.973C261.985 76.3684 262.37 74.814 262.971 73.3097C263.205 72.6411 263.506 72.1397 263.874 71.8054C264.242 71.4377 264.659 71.2539 265.127 71.2539C266.465 71.2539 267.668 71.5046 268.738 72.006C269.807 72.474 270.71 73.1426 271.445 74.0117C272.114 74.8474 272.682 75.8837 273.15 77.1206C273.618 78.324 273.953 79.611 274.153 80.9816C274.354 82.3856 274.454 83.8731 274.454 85.4443V85.8454C274.454 86.8817 274.471 87.8177 274.504 88.6534L274.554 91.5116C274.554 101.139 272.315 105.953 267.835 105.953ZM267.635 103.847C268.236 103.847 268.788 103.613 269.289 103.145C269.791 102.643 270.175 101.975 270.443 101.139C271.078 99.4341 271.462 97.5956 271.596 95.6233C271.763 93.9184 271.847 92.4476 271.847 91.2107C271.847 89.7064 271.73 87.7341 271.496 85.2939C271.295 82.7199 271.195 80.7977 271.195 79.5274V78.6249C271.128 77.3546 270.693 76.2514 269.891 75.3154C269.122 74.3794 268.169 73.9114 267.033 73.9114C265.896 73.9114 265.144 74.5633 264.776 75.867C264.442 76.9033 264.275 78.2404 264.275 79.8784C264.275 80.5136 264.292 81.0484 264.325 81.483V82.8369L264.225 85.1434C264.158 85.8454 264.125 86.6143 264.125 87.45C264.125 89.2551 264.175 91.0436 264.275 92.8153C264.409 95.3224 264.743 97.7627 265.278 100.136C265.813 102.61 266.598 103.847 267.635 103.847ZM285.904 105.953C285.035 105.953 284.233 105.669 283.497 105.1C282.762 104.565 282.16 103.83 281.692 102.894C280.723 100.855 280.121 98.6319 279.887 96.225C279.586 93.9519 279.436 91.7623 279.436 89.6563C279.436 89.2551 279.452 88.9209 279.486 88.6534V87.7509C279.486 87.5837 279.469 87.5001 279.436 87.5001V86.5976L279.486 83.0876C279.519 82.0179 279.653 80.313 279.887 77.973C280.054 76.3684 280.439 74.814 281.04 73.3097C281.274 72.6411 281.575 72.1397 281.943 71.8054C282.311 71.4377 282.728 71.2539 283.196 71.2539C284.534 71.2539 285.737 71.5046 286.807 72.006C287.876 72.474 288.779 73.1426 289.514 74.0117C290.183 74.8474 290.751 75.8837 291.219 77.1206C291.687 78.324 292.022 79.611 292.222 80.9816C292.423 82.3856 292.523 83.8731 292.523 85.4443V85.8454C292.523 86.8817 292.54 87.8177 292.573 88.6534L292.623 91.5116C292.623 101.139 290.384 105.953 285.904 105.953ZM285.704 103.847C286.305 103.847 286.857 103.613 287.358 103.145C287.86 102.643 288.244 101.975 288.512 101.139C289.147 99.4341 289.531 97.5956 289.665 95.6233C289.832 93.9184 289.916 92.4476 289.916 91.2107C289.916 89.7064 289.799 87.7341 289.565 85.2939C289.364 82.7199 289.264 80.7977 289.264 79.5274V78.6249C289.197 77.3546 288.762 76.2514 287.96 75.3154C287.191 74.3794 286.238 73.9114 285.102 73.9114C283.965 73.9114 283.213 74.5633 282.845 75.867C282.511 76.9033 282.344 78.2404 282.344 79.8784C282.344 80.5136 282.361 81.0484 282.394 81.483V82.8369L282.294 85.1434C282.227 85.8454 282.194 86.6143 282.194 87.45C282.194 89.2551 282.244 91.0436 282.344 92.8153C282.478 95.3224 282.812 97.7627 283.347 100.136C283.882 102.61 284.667 103.847 285.704 103.847ZM309.94 105.852C309.171 105.852 308.352 105.017 307.483 103.345C306.18 100.838 304.893 96.7097 303.622 90.96C303.255 89.3889 302.954 87.9347 302.72 86.5976C301.516 89.0044 300.915 91.9127 300.915 95.3224V104.599C300.915 105.368 300.58 105.752 299.912 105.752C299.41 105.752 298.992 105.602 298.658 105.301C298.357 105.033 298.207 104.649 298.207 104.148V88.9543C298.207 87.4834 298.374 84.7757 298.708 80.8311C299.043 77.388 299.21 74.6803 299.21 72.708C299.477 72.0729 299.962 71.7553 300.664 71.7553C301.098 71.7553 301.466 71.9057 301.767 72.2066C302.068 72.5074 302.218 72.8751 302.218 73.3097V73.4601C301.784 74.1956 301.566 77.2376 301.566 82.5861V84.3913L303.422 80.7309C304.558 78.3574 305.628 76.3183 306.631 74.6134C307.567 72.942 308.252 72.1063 308.687 72.1063C309.222 72.1063 309.673 72.2233 310.041 72.4573C310.442 72.6913 310.642 73.0256 310.642 73.4601L309.439 75.4659C306.932 79.5107 305.528 81.8507 305.227 82.4859C305.227 83.0541 305.21 83.5556 305.177 83.9901L305.127 85.4944C305.127 86.9319 305.695 89.6229 306.831 93.5674C308.001 97.4786 308.971 100.069 309.74 101.34L310.392 102.242C311.027 103.111 311.344 103.88 311.344 104.549C311.344 104.916 311.194 105.217 310.893 105.451C310.626 105.719 310.308 105.852 309.94 105.852ZM90.1823 163.198L90.1321 161.242C90.0987 160.674 90.082 160.039 90.082 159.337L90.1321 157.632C90.0318 157.264 89.7811 153.604 89.38 146.651C88.9788 139.697 88.7448 135.235 88.678 133.262C86.7391 133.196 85.5023 132.995 84.9674 132.661C84.5997 132.393 84.4158 132.092 84.4158 131.758C84.4158 131.491 84.583 131.257 84.9173 131.056C85.285 130.822 85.6527 130.705 86.0204 130.705C86.9564 130.705 88.093 130.772 89.4301 130.906C90.7004 131.073 91.837 131.156 92.8398 131.156H93.241H93.6421C94.6784 131.156 95.1966 131.558 95.1966 132.36C95.1966 132.761 95.0294 133.095 94.6951 133.363C94.3608 133.597 93.9764 133.714 93.5418 133.714C93.241 133.714 92.8064 133.664 92.2381 133.563L91.2353 133.363L91.1851 133.613L91.135 133.864C91.135 136.839 91.4191 141.586 91.9874 148.105C92.5223 154.222 92.7897 158.969 92.7897 162.345C92.7897 162.746 92.6058 163.097 92.2381 163.398C91.9038 163.699 91.5194 163.85 91.0848 163.85L90.1823 163.198ZM106.071 164.953C105.201 164.953 104.399 164.669 103.664 164.1C102.928 163.565 102.327 162.83 101.859 161.894C100.889 159.855 100.287 157.632 100.053 155.225C99.7525 152.952 99.6021 150.762 99.6021 148.656C99.6021 148.255 99.6188 147.921 99.6522 147.653V146.751C99.6522 146.584 99.6355 146.5 99.6021 146.5V145.598L99.6522 142.088C99.6857 141.018 99.8194 139.313 100.053 136.973C100.221 135.368 100.605 133.814 101.207 132.31C101.441 131.641 101.742 131.14 102.109 130.805C102.477 130.438 102.895 130.254 103.363 130.254C104.7 130.254 105.903 130.505 106.973 131.006C108.043 131.474 108.945 132.143 109.681 133.012C110.349 133.847 110.918 134.884 111.386 136.121C111.854 137.324 112.188 138.611 112.389 139.982C112.589 141.386 112.689 142.873 112.689 144.444V144.845C112.689 145.882 112.706 146.818 112.74 147.653L112.79 150.512C112.79 160.139 110.55 164.953 106.071 164.953ZM105.87 162.847C106.472 162.847 107.023 162.613 107.525 162.145C108.026 161.643 108.411 160.975 108.678 160.139C109.313 158.434 109.698 156.596 109.831 154.623C109.998 152.918 110.082 151.448 110.082 150.211C110.082 148.706 109.965 146.734 109.731 144.294C109.53 141.72 109.43 139.798 109.43 138.527V137.625C109.363 136.355 108.929 135.251 108.126 134.315C107.358 133.379 106.405 132.911 105.268 132.911C104.132 132.911 103.38 133.563 103.012 134.867C102.678 135.903 102.51 137.24 102.51 138.878C102.51 139.514 102.527 140.048 102.561 140.483V141.837L102.46 144.143C102.393 144.845 102.36 145.614 102.36 146.45C102.36 148.255 102.41 150.044 102.51 151.815C102.644 154.322 102.978 156.763 103.513 159.136C104.048 161.61 104.834 162.847 105.87 162.847ZM131.542 164.702C130.973 164.702 130.505 164.334 130.138 163.599C130.505 162.897 130.689 160.055 130.689 155.075C130.689 153.905 130.606 152.634 130.438 151.264L130.288 149.81C130.188 148.907 130.138 148.222 130.138 147.754V146.45C129.803 145.614 129.185 144.06 128.282 141.787C127.413 139.514 126.711 137.608 126.176 136.07C125.541 134.299 125.224 133.095 125.224 132.46V132.209L126.377 131.357C126.945 131.424 127.547 132.159 128.182 133.563C128.717 134.8 129.302 136.572 129.937 138.878C130.606 141.185 130.94 142.405 130.94 142.539C131.074 142.171 131.341 140.918 131.742 138.778C132.143 136.639 132.595 134.75 133.096 133.112C133.664 131.474 134.249 130.655 134.851 130.655C135.185 130.655 135.469 130.755 135.703 130.956C135.971 131.156 136.105 131.407 136.105 131.708C136.105 133.413 135.637 135.82 134.701 138.929C133.698 142.305 133.196 144.745 133.196 146.249V161.342C133.196 163.582 132.645 164.702 131.542 164.702ZM147.497 164.953C146.628 164.953 145.826 164.669 145.09 164.1C144.355 163.565 143.753 162.83 143.285 161.894C142.316 159.855 141.714 157.632 141.48 155.225C141.179 152.952 141.029 150.762 141.029 148.656C141.029 148.255 141.045 147.921 141.079 147.653V146.751C141.079 146.584 141.062 146.5 141.029 146.5V145.598L141.079 142.088C141.112 141.018 141.246 139.313 141.48 136.973C141.647 135.368 142.032 133.814 142.633 132.31C142.867 131.641 143.168 131.14 143.536 130.805C143.904 130.438 144.321 130.254 144.789 130.254C146.127 130.254 147.33 130.505 148.4 131.006C149.469 131.474 150.372 132.143 151.107 133.012C151.776 133.847 152.344 134.884 152.812 136.121C153.28 137.324 153.615 138.611 153.815 139.982C154.016 141.386 154.116 142.873 154.116 144.444V144.845C154.116 145.882 154.133 146.818 154.166 147.653L154.216 150.512C154.216 160.139 151.977 164.953 147.497 164.953ZM147.297 162.847C147.898 162.847 148.45 162.613 148.951 162.145C149.453 161.643 149.837 160.975 150.105 160.139C150.74 158.434 151.124 156.596 151.258 154.623C151.425 152.918 151.509 151.448 151.509 150.211C151.509 148.706 151.392 146.734 151.158 144.294C150.957 141.72 150.857 139.798 150.857 138.527V137.625C150.79 136.355 150.355 135.251 149.553 134.315C148.784 133.379 147.831 132.911 146.695 132.911C145.558 132.911 144.806 133.563 144.438 134.867C144.104 135.903 143.937 137.24 143.937 138.878C143.937 139.514 143.954 140.048 143.987 140.483V141.837L143.887 144.143C143.82 144.845 143.787 145.614 143.787 146.45C143.787 148.255 143.837 150.044 143.937 151.815C144.071 154.322 144.405 156.763 144.94 159.136C145.475 161.61 146.26 162.847 147.297 162.847ZM165.065 164.752C164.262 164.752 163.544 164.568 162.909 164.201C162.273 163.866 161.755 163.365 161.354 162.696C160.552 161.292 160.034 159.704 159.8 157.933C159.566 156.395 159.449 154.556 159.449 152.417C159.348 148.807 159.298 144.394 159.298 139.179L159.248 135.318C159.215 135.118 159.198 134.783 159.198 134.315C159.131 133.045 159.098 132.276 159.098 132.009C159.399 131.307 159.75 130.956 160.151 130.956C160.552 130.956 160.903 131.257 161.204 131.858C161.538 132.46 161.705 133.112 161.705 133.814V147.453C161.705 148.79 161.822 150.562 162.056 152.768C162.29 155.509 162.407 157.281 162.407 158.083C162.407 160.557 163.46 161.794 165.566 161.794C167.973 161.794 169.176 152.801 169.176 134.817V132.009V131.558C169.143 131.457 169.126 131.324 169.126 131.156C169.126 130.755 169.21 130.471 169.377 130.304C169.578 130.103 169.945 130.003 170.48 130.003C170.915 130.003 171.249 130.137 171.483 130.404C171.75 130.638 171.918 130.922 171.984 131.257C172.018 131.457 172.035 131.842 172.035 132.41C172.035 132.945 171.984 133.797 171.884 134.967C171.75 135.937 171.684 136.772 171.684 137.474C171.684 138.243 171.65 138.929 171.583 139.53L171.483 141.636V142.037C171.516 142.171 171.533 142.322 171.533 142.489C171.533 157.331 169.377 164.752 165.065 164.752ZM186.592 164.852C185.857 164.852 185.188 164.05 184.587 162.446C183.885 160.707 183.367 158.919 183.032 157.08L182.681 155.375C181.712 150.595 181.093 147.871 180.826 147.202H180.224C180.224 148.172 180.208 149.057 180.174 149.86V152.618C180.174 157.097 180.492 160.59 181.127 163.097L180.575 164.451H179.171L178.519 163.699L178.57 160.34C178.57 157.331 178.419 152.768 178.118 146.651C177.851 140.132 177.717 135.569 177.717 132.962C177.717 131.357 178.269 130.555 179.372 130.555C181.177 130.555 182.648 131.023 183.784 131.959C184.954 132.895 185.539 134.198 185.539 135.87V139.38C185.539 139.881 185.456 140.466 185.289 141.135C185.122 141.77 184.938 142.288 184.737 142.689L183.784 144.494L182.982 145.999L183.233 147.202L183.935 150.762C184.403 153.336 184.854 155.426 185.289 157.03C185.723 158.635 186.258 160.089 186.893 161.393L187.194 161.994C187.528 162.663 187.696 163.198 187.696 163.599C187.696 163.933 187.595 164.217 187.395 164.451C187.194 164.719 186.927 164.852 186.592 164.852ZM180.425 144.745C181.16 144.377 181.779 143.375 182.28 141.737C182.815 140.065 183.082 138.527 183.082 137.123C183.082 136.054 182.949 135.051 182.681 134.115C182.514 133.58 182.23 133.179 181.829 132.911C181.461 132.611 180.993 132.46 180.425 132.46L180.325 132.711L180.224 133.162L180.325 139.079C180.391 140.817 180.425 142.706 180.425 144.745ZM204.069 164.401C202.532 164.401 201.763 163.983 201.763 163.148L201.863 156.98L201.963 150.812C201.963 148.573 201.913 145.18 201.813 140.633C201.713 136.121 201.662 132.728 201.662 130.454V130.154C201.662 129.284 201.746 128.482 201.913 127.747C202.114 126.844 202.649 126.393 203.518 126.393C205.858 126.393 207.713 127.145 209.084 128.649C210.454 130.154 211.139 132.143 211.139 134.616C211.139 136.121 210.738 137.692 209.936 139.33C209.134 140.968 208.181 142.188 207.078 142.99C209.017 144.294 210.437 145.982 211.34 148.055C212.276 150.094 212.744 152.35 212.744 154.824C212.744 155.994 212.343 157.448 211.541 159.186C210.571 161.259 209.251 162.746 207.579 163.649C206.576 164.15 205.473 164.401 204.27 164.401H204.069ZM204.571 142.238C205.44 142.037 206.175 141.319 206.777 140.082C207.278 139.146 207.746 138.009 208.181 136.672C208.281 136.304 208.448 135.836 208.682 135.268V133.513C208.682 132.51 208.315 131.541 207.579 130.605C206.844 129.669 206.008 129.201 205.072 129.201C204.604 129.201 204.37 129.719 204.37 130.755C204.37 132.962 204.404 134.934 204.47 136.672L204.571 142.238ZM204.771 161.794C206.409 161.56 207.713 160.808 208.682 159.537C209.652 158.267 210.137 156.746 210.137 154.974C210.137 153.437 210.003 152.033 209.735 150.762C209.501 149.459 209.184 148.472 208.783 147.804C208.415 147.169 208.047 146.634 207.68 146.199C207.312 145.765 206.994 145.481 206.727 145.347L206.326 145.196H204.521C204.688 149.041 204.771 154.573 204.771 161.794ZM223.397 164.953C222.528 164.953 221.726 164.669 220.99 164.1C220.255 163.565 219.653 162.83 219.185 161.894C218.216 159.855 217.614 157.632 217.38 155.225C217.079 152.952 216.929 150.762 216.929 148.656C216.929 148.255 216.945 147.921 216.979 147.653V146.751C216.979 146.584 216.962 146.5 216.929 146.5V145.598L216.979 142.088C217.012 141.018 217.146 139.313 217.38 136.973C217.547 135.368 217.931 133.814 218.533 132.31C218.767 131.641 219.068 131.14 219.436 130.805C219.803 130.438 220.221 130.254 220.689 130.254C222.026 130.254 223.23 130.505 224.3 131.006C225.369 131.474 226.272 132.143 227.007 133.012C227.676 133.847 228.244 134.884 228.712 136.121C229.18 137.324 229.514 138.611 229.715 139.982C229.916 141.386 230.016 142.873 230.016 144.444V144.845C230.016 145.882 230.033 146.818 230.066 147.653L230.116 150.512C230.116 160.139 227.876 164.953 223.397 164.953ZM223.196 162.847C223.798 162.847 224.35 162.613 224.851 162.145C225.353 161.643 225.737 160.975 226.004 160.139C226.64 158.434 227.024 156.596 227.158 154.623C227.325 152.918 227.408 151.448 227.408 150.211C227.408 148.706 227.291 146.734 227.057 144.294C226.857 141.72 226.757 139.798 226.757 138.527V137.625C226.69 136.355 226.255 135.251 225.453 134.315C224.684 133.379 223.731 132.911 222.595 132.911C221.458 132.911 220.706 133.563 220.338 134.867C220.004 135.903 219.837 137.24 219.837 138.878C219.837 139.514 219.854 140.048 219.887 140.483V141.837L219.787 144.143C219.72 144.845 219.686 145.614 219.686 146.45C219.686 148.255 219.737 150.044 219.837 151.815C219.971 154.322 220.305 156.763 220.84 159.136C221.375 161.61 222.16 162.847 223.196 162.847ZM241.466 164.953C240.597 164.953 239.795 164.669 239.059 164.1C238.324 163.565 237.722 162.83 237.254 161.894C236.285 159.855 235.683 157.632 235.449 155.225C235.148 152.952 234.998 150.762 234.998 148.656C234.998 148.255 235.014 147.921 235.048 147.653V146.751C235.048 146.584 235.031 146.5 234.998 146.5V145.598L235.048 142.088C235.081 141.018 235.215 139.313 235.449 136.973C235.616 135.368 236 133.814 236.602 132.31C236.836 131.641 237.137 131.14 237.505 130.805C237.872 130.438 238.29 130.254 238.758 130.254C240.095 130.254 241.299 130.505 242.369 131.006C243.438 131.474 244.341 132.143 245.076 133.012C245.745 133.847 246.313 134.884 246.781 136.121C247.249 137.324 247.583 138.611 247.784 139.982C247.985 141.386 248.085 142.873 248.085 144.444V144.845C248.085 145.882 248.102 146.818 248.135 147.653L248.185 150.512C248.185 160.139 245.945 164.953 241.466 164.953ZM241.265 162.847C241.867 162.847 242.419 162.613 242.92 162.145C243.422 161.643 243.806 160.975 244.073 160.139C244.709 158.434 245.093 156.596 245.227 154.623C245.394 152.918 245.477 151.448 245.477 150.211C245.477 148.706 245.36 146.734 245.126 144.294C244.926 141.72 244.826 139.798 244.826 138.527V137.625C244.759 136.355 244.324 135.251 243.522 134.315C242.753 133.379 241.8 132.911 240.664 132.911C239.527 132.911 238.775 133.563 238.407 134.867C238.073 135.903 237.906 137.24 237.906 138.878C237.906 139.514 237.923 140.048 237.956 140.483V141.837L237.856 144.143C237.789 144.845 237.755 145.614 237.755 146.45C237.755 148.255 237.806 150.044 237.906 151.815C238.04 154.322 238.374 156.763 238.909 159.136C239.444 161.61 240.229 162.847 241.265 162.847ZM265.502 164.852C264.733 164.852 263.914 164.017 263.045 162.345C261.741 159.838 260.454 155.71 259.184 149.96C258.816 148.389 258.516 146.935 258.282 145.598C257.078 148.004 256.476 150.913 256.476 154.322V163.599C256.476 164.368 256.142 164.752 255.474 164.752C254.972 164.752 254.554 164.602 254.22 164.301C253.919 164.033 253.769 163.649 253.769 163.148V147.954C253.769 146.483 253.936 143.776 254.27 139.831C254.604 136.388 254.772 133.68 254.772 131.708C255.039 131.073 255.524 130.755 256.226 130.755C256.66 130.755 257.028 130.906 257.329 131.207C257.63 131.507 257.78 131.875 257.78 132.31V132.46C257.346 133.196 257.128 136.238 257.128 141.586V143.391L258.984 139.731C260.12 137.357 261.19 135.318 262.193 133.613C263.129 131.942 263.814 131.106 264.249 131.106C264.783 131.106 265.235 131.223 265.602 131.457C266.004 131.691 266.204 132.026 266.204 132.46L265.001 134.466C262.494 138.511 261.09 140.851 260.789 141.486C260.789 142.054 260.772 142.556 260.739 142.99L260.688 144.494C260.688 145.932 261.257 148.623 262.393 152.567C263.563 156.479 264.533 159.069 265.302 160.34L265.953 161.242C266.589 162.111 266.906 162.88 266.906 163.549C266.906 163.916 266.756 164.217 266.455 164.451C266.187 164.719 265.87 164.852 265.502 164.852ZM272.101 164.702C271.5 164.602 270.982 164.384 270.547 164.05C270.146 163.716 269.912 163.281 269.845 162.746L270.397 161.894C270.597 161.894 270.915 161.961 271.349 162.095C271.851 162.195 272.235 162.245 272.503 162.245C273.104 162.245 273.639 161.978 274.107 161.443C274.609 160.908 274.976 160.206 275.21 159.337C275.645 157.732 275.862 156.295 275.862 155.024C275.862 152.818 275.16 150.495 273.756 148.055L273.205 147.102C272.569 145.999 272.035 145.013 271.6 144.143C271.165 143.274 270.798 142.338 270.497 141.335C270.096 140.032 269.895 138.728 269.895 137.424C269.895 135.953 270.229 134.416 270.898 132.811C271.232 132.042 271.7 131.424 272.302 130.956C272.937 130.454 273.639 130.204 274.408 130.204C275.01 130.204 275.561 130.404 276.063 130.805C276.598 131.173 276.865 131.624 276.865 132.159C276.865 132.46 276.748 132.694 276.514 132.861C276.28 133.028 275.996 133.112 275.662 133.112C275.294 133.112 274.943 133.012 274.609 132.811C273.873 132.845 273.288 133.496 272.854 134.767C272.486 135.937 272.302 136.906 272.302 137.675C272.302 138.644 272.452 139.631 272.753 140.633C273.054 141.603 273.439 142.489 273.907 143.291L275.01 145.297L276.765 148.606C277.233 149.542 277.6 150.629 277.868 151.865C278.169 153.102 278.319 154.356 278.319 155.626C278.319 157.665 277.851 159.604 276.915 161.443C276.447 162.379 275.779 163.131 274.909 163.699C274.074 164.267 273.138 164.552 272.101 164.552V164.702ZM292.413 164C291.276 164 290.708 161.242 290.708 155.726L290.758 152.868L290.808 150.562V150.411V149.91C290.842 149.642 290.858 149.325 290.858 148.957C290.858 148.89 290.808 148.807 290.708 148.706C290.608 148.606 290.557 148.523 290.557 148.456V148.406C290.39 148.472 290.089 148.506 289.655 148.506C289.22 148.506 288.685 148.439 288.05 148.305C287.85 148.272 287.315 148.188 286.446 148.055V153.821C286.446 154.69 286.496 156.061 286.596 157.933C286.696 159.771 286.747 161.142 286.747 162.044C286.747 162.546 286.613 162.98 286.345 163.348C286.078 163.716 285.727 163.9 285.292 163.9C284.657 163.9 284.206 163.281 283.939 162.044C283.671 160.774 283.537 159.119 283.537 157.08L283.638 153.019C283.671 151.882 283.688 150.679 283.688 149.408V148.556V147.854C283.688 147.319 283.671 146.968 283.638 146.801V146.55L283.788 143.642C283.788 142.372 283.738 140.483 283.638 137.976C283.537 135.469 283.487 133.58 283.487 132.31C283.487 131.909 283.621 131.558 283.888 131.257C284.156 130.956 284.49 130.805 284.891 130.805C285.961 130.805 286.496 131.808 286.496 133.814L286.396 140.032C286.329 141.904 286.295 143.993 286.295 146.3C286.797 146.467 287.699 146.55 289.003 146.55H290.858C290.925 146.35 290.959 146.149 290.959 145.949C290.959 144.344 290.858 141.971 290.658 138.828C290.424 135.887 290.307 133.496 290.307 131.658C290.307 131.29 290.44 130.989 290.708 130.755C291.009 130.488 291.36 130.354 291.761 130.354C291.995 130.354 292.329 130.438 292.764 130.605L293.215 130.805C293.215 135.552 293.382 141.887 293.716 149.81L294.168 162.496C294.168 162.964 293.984 163.331 293.616 163.599C293.282 163.866 292.881 164 292.413 164ZM302.494 164.652C302.06 164.652 301.658 164.501 301.291 164.201C300.956 163.9 300.773 163.532 300.739 163.097V161.794V160.791C300.706 160.49 300.689 160.139 300.689 159.738C300.689 159.036 300.639 157.966 300.539 156.529L300.438 153.32C300.438 151.682 300.488 149.241 300.589 145.999C300.722 143.09 300.789 140.65 300.789 138.678C300.789 138.21 300.739 137.508 300.639 136.572C300.539 135.602 300.488 134.9 300.488 134.466C300.488 132.092 301.19 130.906 302.594 130.906C303.698 130.906 304.968 131.123 306.405 131.558C307.876 131.992 308.612 132.51 308.612 133.112C308.612 133.446 308.461 133.764 308.16 134.065C307.893 134.332 307.559 134.549 307.157 134.717C305.753 134.215 304.483 133.881 303.347 133.714C303.38 134.215 303.397 134.934 303.397 135.87C303.397 137.207 303.38 138.41 303.347 139.48C303.246 141.085 303.196 142.288 303.196 143.09L303.347 143.893L304.149 143.843C304.416 143.809 304.751 143.792 305.152 143.792C306.756 143.792 307.559 144.26 307.559 145.196C307.559 145.564 307.408 145.882 307.107 146.149C306.806 146.383 306.422 146.5 305.954 146.5C305.352 146.5 304.884 146.467 304.55 146.4H303.296C303.363 147.269 303.397 148.539 303.397 150.211C303.397 151.882 303.38 153.386 303.347 154.724C303.246 156.763 303.196 158.284 303.196 159.287C303.196 161.159 303.23 162.095 303.296 162.095L304.951 162.044C305.519 162.011 306.205 161.994 307.007 161.994C308.277 161.994 308.912 162.395 308.912 163.198C308.912 163.666 308.695 164.017 308.261 164.251C307.859 164.518 307.358 164.652 306.756 164.652H302.494ZM322.159 164.802C320.956 164.401 319.468 164.201 317.696 164.201C317.162 164.535 316.593 164.702 315.992 164.702C315.59 164.702 315.239 164.518 314.939 164.15C314.671 163.816 314.537 163.448 314.537 163.047C314.537 160.239 314.654 156.495 314.888 151.815C315.089 146.834 315.189 143.107 315.189 140.633V140.282C314.989 138.176 314.888 136.605 314.888 135.569C314.888 132.393 315.473 130.805 316.643 130.805C316.978 130.805 317.262 130.939 317.496 131.207C317.763 131.441 317.897 131.725 317.897 132.059C317.897 132.46 317.847 133.095 317.747 133.964C317.646 134.8 317.596 135.435 317.596 135.87C317.596 138.11 317.613 140.132 317.646 141.937C317.68 143.709 317.696 145.715 317.696 147.954C317.529 148.456 317.446 149.158 317.446 150.06V150.662L317.345 154.623C317.279 155.793 317.245 157.13 317.245 158.635C317.245 160.941 317.797 162.095 318.9 162.095C318.967 162.095 319.067 162.095 319.201 162.095C319.368 162.061 319.585 162.044 319.853 162.044C320.153 162.011 320.538 161.994 321.006 161.994C322.811 161.994 323.714 162.496 323.714 163.499C323.714 163.833 323.563 164.117 323.262 164.351C322.961 164.585 322.594 164.735 322.159 164.802ZM328.907 164.451C328.406 164.451 327.804 164.201 327.102 163.699C327.37 160.925 327.587 156.662 327.754 150.913C327.921 144.929 328.038 141.335 328.105 140.132V138.929C328.239 135.653 328.306 133.379 328.306 132.109C328.306 131.641 328.489 131.273 328.857 131.006C329.258 130.739 329.71 130.605 330.211 130.605C331.381 130.605 332.635 130.705 333.972 130.906C334.841 131.039 335.526 131.257 336.028 131.558C336.562 131.858 336.83 132.226 336.83 132.661C336.83 133.597 335.977 134.065 334.273 134.065C333.637 133.73 332.768 133.563 331.665 133.563H331.063V134.165C331.063 135.469 330.997 137.123 330.863 139.129C330.696 141.001 330.612 142.689 330.612 144.194V145.547H331.013H331.515C333.153 145.547 333.972 145.982 333.972 146.851C333.972 147.286 333.788 147.637 333.42 147.904C333.086 148.172 332.668 148.305 332.167 148.305C331.364 148.305 330.712 148.222 330.211 148.055V162.245C330.211 163.716 329.776 164.451 328.907 164.451Z" fill="#5B5F7D"/>
<path d="M8.2071 0.292891C7.81658 -0.0976323 7.18341 -0.0976299 6.79289 0.292896L0.428953 6.65688C0.0384306 7.04741 0.038433 7.68057 0.428959 8.07109C0.819484 8.46162 1.45265 8.46161 1.84317 8.07109L7.50001 2.41421L13.1569 8.07105C13.5474 8.46157 14.1806 8.46157 14.5711 8.07104C14.9616 7.68052 14.9616 7.04735 14.5711 6.65683L8.2071 0.292891ZM20 74L20.8401 73.4575L20 74ZM71.9999 110.436L71.9572 111.435L71.9999 110.436ZM6.5001 1.95576C6.50023 2.50804 6.94805 2.95565 7.50033 2.95552C8.05262 2.95539 8.50023 2.50757 8.5001 1.95529L6.5001 1.95576ZM8.50553 5.80164C8.50383 5.24936 8.05474 4.80303 7.50246 4.80473C6.95018 4.80643 6.50384 5.25552 6.50554 5.8078L8.50553 5.80164ZM6.51373 7.73575C6.51678 8.28802 6.96697 8.73326 7.51924 8.73021C8.07152 8.72715 8.51675 8.27697 8.5137 7.7247L6.51373 7.73575ZM8.54698 11.563C8.54024 11.0108 8.0871 10.5686 7.53486 10.5753C6.98262 10.582 6.54039 11.0352 6.54713 11.5874L8.54698 11.563ZM6.57455 13.5141C6.58359 14.0663 7.03857 14.5066 7.59078 14.4976C8.14299 14.4886 8.58332 14.0336 8.57428 13.4814L6.57455 13.5141ZM8.65539 17.3189C8.6409 16.7668 8.18159 16.331 7.62949 16.3455C7.0774 16.36 6.64159 16.8193 6.65608 17.3714L8.65539 17.3189ZM6.71219 19.3014C6.72983 19.8534 7.19162 20.2866 7.74363 20.269C8.29563 20.2513 8.72881 19.7895 8.71117 19.2375L6.71219 19.3014ZM8.85768 23.0669C8.83291 22.5152 8.36556 22.088 7.81383 22.1128C7.2621 22.1375 6.83492 22.6049 6.85969 23.1566L8.85768 23.0669ZM6.95317 25.0853C6.98193 25.6368 7.45234 26.0606 8.00388 26.0318C8.55541 26.0031 8.97921 25.5327 8.95046 24.9811L6.95317 25.0853ZM9.17996 28.8064C9.14236 28.2553 8.66521 27.8391 8.11421 27.8767C7.5632 27.9143 7.147 28.3915 7.1846 28.9425L9.17996 28.8064ZM7.32452 30.8692C7.36699 31.4198 7.8478 31.8318 8.39845 31.7893C8.9491 31.7469 9.36107 31.2661 9.3186 30.7154L7.32452 30.8692ZM9.64926 34.5289C9.59609 33.9791 9.10735 33.5766 8.55763 33.6298C8.00791 33.683 7.60538 34.1717 7.65855 34.7214L9.64926 34.5289ZM7.85493 36.6456C7.91397 37.1947 8.40698 37.592 8.9561 37.5329C9.50522 37.4739 9.90251 36.9809 9.84347 36.4318L7.85493 36.6456ZM10.2958 40.2288C10.2239 39.6812 9.72175 39.2955 9.17416 39.3674C8.62658 39.4393 8.24094 39.9415 8.31282 40.4891L10.2958 40.2288ZM8.57706 42.4075C8.65596 42.9542 9.16304 43.3333 9.70966 43.2544C10.2563 43.1755 10.6354 42.6684 10.5565 42.1218L8.57706 42.4075ZM11.1539 45.8922C11.0597 45.3481 10.5421 44.9833 9.99793 45.0776C9.45375 45.1718 9.08901 45.6894 9.18325 46.2336L11.1539 45.8922ZM9.52888 48.1423C9.63153 48.685 10.1547 49.0417 10.6973 48.939C11.24 48.8364 11.5967 48.3133 11.494 47.7706L9.52888 48.1423ZM12.265 51.5057C12.144 50.9668 11.6091 50.6281 11.0702 50.7491C10.5314 50.8701 10.1926 51.405 10.3136 51.9439L12.265 51.5057ZM10.7565 53.8342C10.8876 54.3707 11.4287 54.6994 11.9653 54.5683C12.5018 54.4373 12.8305 53.8961 12.6994 53.3596L10.7565 53.8342ZM13.6766 57.037C13.5235 56.5063 12.9693 56.2002 12.4386 56.3533C11.908 56.5063 11.6019 57.0606 11.7549 57.5912L13.6766 57.037ZM12.3156 59.4561C12.4806 59.9831 13.0417 60.2765 13.5687 60.1115C14.0958 59.9464 14.3892 59.3853 14.2241 58.8583L12.3156 59.4561ZM15.4476 62.452C15.2562 61.934 14.6811 61.6692 14.163 61.8606C13.645 62.0519 13.3802 62.6271 13.5716 63.1451L15.4476 62.452ZM14.2726 64.9651C14.4783 65.4776 15.0606 65.7263 15.5731 65.5206C16.0856 65.3149 16.3343 64.7326 16.1286 64.2201L14.2726 64.9651ZM17.6433 67.6873C17.4063 67.1884 16.8098 66.9761 16.311 67.2131C15.8121 67.45 15.5998 68.0465 15.8367 68.5454L17.6433 67.6873ZM16.7069 70.3001C16.9607 70.7906 17.5641 70.9824 18.0546 70.7285C18.5451 70.4747 18.7369 69.8713 18.483 69.3808L16.7069 70.3001ZM20.3389 72.6637C20.0488 72.1938 19.4326 72.048 18.9626 72.3381C18.4927 72.6283 18.3469 73.2444 18.637 73.7144L20.3389 72.6637ZM19.7119 75.3879C20.0161 75.8489 20.6364 75.976 21.0974 75.6717C21.5583 75.3675 21.6854 74.7472 21.3812 74.2863L19.7119 75.3879ZM23.6123 77.5247C23.2899 77.0763 22.665 76.9742 22.2166 77.2966C21.7682 77.619 21.6661 78.2438 21.9885 78.6923L23.6123 77.5247ZM23.178 80.3117C23.5094 80.7534 24.1363 80.8428 24.578 80.5113C25.0198 80.1798 25.1091 79.553 24.7777 79.1113L23.178 80.3117ZM27.1989 82.203C26.8494 81.7754 26.2194 81.712 25.7917 82.0615C25.3641 82.4109 25.3007 83.0409 25.6502 83.4686L27.1989 82.203ZM26.94 85.0134C27.2984 85.4336 27.9296 85.4836 28.3498 85.1252C28.7699 84.7668 28.82 84.1356 28.4616 83.7154L26.94 85.0134ZM31.0761 86.651C30.7 86.2466 30.0672 86.2236 29.6628 86.5997C29.2584 86.9758 29.2354 87.6086 29.6116 88.013L31.0761 86.651ZM30.9932 89.4666C31.378 89.8628 32.0111 89.8719 32.4073 89.4871C32.8034 89.1023 32.8126 88.4692 32.4277 88.073L30.9932 89.4666ZM35.2303 90.833C34.8283 90.4544 34.1954 90.4734 33.8167 90.8754C33.4381 91.2775 33.4571 91.9104 33.8591 92.289L35.2303 90.833ZM35.3382 93.6508C35.7487 94.0202 36.381 93.9869 36.7505 93.5764C37.1199 93.1659 37.0866 92.5336 36.6761 92.1641L35.3382 93.6508ZM39.6537 94.7225C39.2266 94.3724 38.5965 94.4348 38.2464 94.862C37.8962 95.2891 37.9587 95.9192 38.3858 96.2693L39.6537 94.7225ZM39.954 97.5242C40.3892 97.8641 41.0177 97.7869 41.3576 97.3516C41.6976 96.9164 41.6203 96.2879 41.185 95.948L39.954 97.5242ZM44.3371 98.29C43.8859 97.9715 43.262 98.0791 42.9435 98.5303C42.625 98.9815 42.7325 99.6054 43.1837 99.9239L44.3371 98.29ZM44.8427 101.064C45.3017 101.372 45.9228 101.249 46.23 100.79C46.5372 100.331 46.4141 99.7095 45.9551 99.4023L44.8427 101.064ZM49.2705 101.501C48.7964 101.217 48.1824 101.372 47.8993 101.847C47.6161 102.321 47.771 102.935 48.2452 103.218L49.2705 101.501ZM49.9881 104.227C50.4696 104.498 51.0792 104.326 51.3496 103.845C51.6199 103.363 51.4487 102.754 50.9671 102.483L49.9881 104.227ZM54.4349 104.305C53.9388 104.062 53.3398 104.268 53.097 104.764C52.8541 105.26 53.0594 105.859 53.5554 106.101L54.4349 104.305ZM55.3789 106.961C55.882 107.189 56.4746 106.966 56.7026 106.463C56.9305 105.96 56.7075 105.367 56.2045 105.139L55.3789 106.961ZM59.8117 106.639C59.295 106.444 58.718 106.704 58.5228 107.221C58.3276 107.738 58.5882 108.315 59.1049 108.51L59.8117 106.639ZM61.0127 109.193C61.5359 109.37 62.1034 109.089 62.2802 108.565C62.457 108.042 62.1761 107.475 61.6529 107.298L61.0127 109.193ZM65.3869 108.4C64.8512 108.266 64.308 108.591 64.1737 109.127C64.0394 109.663 64.3647 110.206 64.9004 110.34L65.3869 108.4ZM66.8829 110.789C67.4243 110.898 67.9516 110.547 68.0606 110.006C68.1696 109.465 67.8191 108.937 67.2777 108.828L66.8829 110.789ZM71.0929 109.378C70.5423 109.333 70.0602 109.744 70.0159 110.294C69.9717 110.845 70.3821 111.327 70.9326 111.371L71.0929 109.378ZM72.7466 111.468C73.2983 111.492 73.7648 111.064 73.7884 110.512C73.812 109.96 73.3838 109.494 72.832 109.47L72.7466 111.468ZM72.7466 111.468C73.2983 111.492 73.7648 111.064 73.7884 110.512C73.812 109.96 73.3838 109.494 72.832 109.47L72.7466 111.468ZM6.5 1C6.5 1.31682 6.50002 1.63543 6.5001 1.95576L8.5001 1.95529C8.50002 1.63518 8.5 1.31674 8.5 0.999996L6.5 1ZM6.50554 5.8078C6.5075 6.44513 6.51016 7.08792 6.51373 7.73575L8.5137 7.7247C8.51013 7.07872 8.50749 6.43758 8.50553 5.80164L6.50554 5.8078ZM6.54713 11.5874C6.55492 12.2259 6.56399 12.8682 6.57455 13.5141L8.57428 13.4814C8.56377 12.8385 8.55474 12.1989 8.54698 11.563L6.54713 11.5874ZM6.65608 17.3714C6.67291 18.0122 6.69154 18.6556 6.71219 19.3014L8.71117 19.2375C8.69065 18.5957 8.67212 17.9561 8.65539 17.3189L6.65608 17.3714ZM6.85969 23.1566C6.88848 23.798 6.91958 24.441 6.95317 25.0853L8.95046 24.9811C8.91713 24.3418 8.88626 23.7037 8.85768 23.0669L6.85969 23.1566ZM7.1846 28.9425C7.22838 29.5841 7.27496 30.2265 7.32452 30.8692L9.3186 30.7154C9.26951 30.0788 9.22335 29.4423 9.17996 28.8064L7.1846 28.9425ZM7.65855 34.7214C7.72062 35.3631 7.78602 36.0046 7.85493 36.6456L9.84347 36.4318C9.77535 35.7981 9.71067 35.1637 9.64926 34.5289L7.65855 34.7214ZM8.31282 40.4891C8.39693 41.1298 8.48494 41.7694 8.57706 42.4075L10.5565 42.1218C10.4657 41.4924 10.3788 40.8612 10.2958 40.2288L8.31282 40.4891ZM9.18325 46.2336C9.29383 46.872 9.40897 47.5083 9.52888 48.1423L11.494 47.7706C11.3761 47.147 11.2628 46.5208 11.1539 45.8922L9.18325 46.2336ZM10.3136 51.9439C10.4559 52.5772 10.6034 53.2074 10.7565 53.8342L12.6994 53.3596C12.5493 52.7453 12.4046 52.1272 12.265 51.5057L10.3136 51.9439ZM11.7549 57.5912C11.9355 58.2173 12.1223 58.839 12.3156 59.4561L14.2241 58.8583C14.0355 58.2561 13.8531 57.6489 13.6766 57.037L11.7549 57.5912ZM13.5716 63.1451C13.7978 63.7576 14.0314 64.3644 14.2726 64.9651L16.1286 64.2201C15.8946 63.6371 15.6677 63.0476 15.4476 62.452L13.5716 63.1451ZM15.8367 68.5454C16.1181 69.1377 16.408 69.7228 16.7069 70.3001L18.483 69.3808C18.195 68.8243 17.9152 68.2597 17.6433 67.6873L15.8367 68.5454ZM18.637 73.7144C18.8089 73.9927 18.9832 74.2688 19.16 74.5425L20.8401 73.4575C20.6707 73.1953 20.5037 72.9307 20.3389 72.6637L18.637 73.7144ZM19.16 74.5425C19.3432 74.8262 19.5272 75.108 19.7119 75.3879L21.3812 74.2863C21.2 74.0118 21.0197 73.7356 20.8401 73.4575L19.16 74.5425ZM21.9885 78.6923C22.3821 79.2398 22.7787 79.7796 23.178 80.3117L24.7777 79.1113C24.3865 78.59 23.998 78.0612 23.6123 77.5247L21.9885 78.6923ZM25.6502 83.4686C26.0777 83.9917 26.5077 84.5066 26.94 85.0134L28.4616 83.7154C28.0384 83.2194 27.6174 82.7153 27.1989 82.203L25.6502 83.4686ZM29.6116 88.013C30.0702 88.5062 30.5309 88.9907 30.9932 89.4666L32.4277 88.073C31.9755 87.6075 31.5249 87.1335 31.0761 86.651L29.6116 88.013ZM33.8591 92.289C34.351 92.7522 34.8441 93.2061 35.3382 93.6508L36.6761 92.1641C36.1932 91.7295 35.7111 91.2858 35.2303 90.833L33.8591 92.289ZM38.3858 96.2693C38.9082 96.6975 39.431 97.1158 39.954 97.5242L41.185 95.948C40.6745 95.5492 40.1639 95.1408 39.6537 94.7225L38.3858 96.2693ZM43.1837 99.9239C43.7376 100.315 44.2907 100.695 44.8427 101.064L45.9551 99.4023C45.4169 99.0421 44.8774 98.6714 44.3371 98.29L43.1837 99.9239ZM48.2452 103.218C48.8285 103.566 49.4097 103.903 49.9881 104.227L50.9671 102.483C50.4043 102.167 49.8386 101.84 49.2705 101.501L48.2452 103.218ZM53.5554 106.101C54.1679 106.401 54.7759 106.688 55.3789 106.961L56.2045 105.139C55.6197 104.874 55.0296 104.596 54.4349 104.305L53.5554 106.101ZM59.1049 108.51C59.7489 108.753 60.3852 108.981 61.0127 109.193L61.6529 107.298C61.0481 107.094 60.434 106.874 59.8117 106.639L59.1049 108.51ZM64.9004 110.34C65.5755 110.509 66.2368 110.659 66.8829 110.789L67.2777 108.828C66.6633 108.705 66.0325 108.562 65.3869 108.4L64.9004 110.34ZM70.9326 111.371C71.2806 111.399 71.6222 111.42 71.9572 111.435L72.0426 109.436C71.7335 109.423 71.4169 109.404 71.0929 109.378L70.9326 111.371ZM71.9572 111.435C72.0834 111.44 72.2589 111.448 72.3718 111.452C72.4043 111.454 72.4376 111.455 72.4692 111.457C72.509 111.458 72.4535 111.456 72.4932 111.458C72.4933 111.458 72.4991 111.458 72.4992 111.458C72.5067 111.458 72.4976 111.458 72.5051 111.458C72.5105 111.458 72.5117 111.458 72.517 111.459C72.5466 111.46 72.5348 111.459 72.5642 111.461C72.576 111.461 72.564 111.461 72.5759 111.461C72.5895 111.462 72.5681 111.461 72.5817 111.461C72.5939 111.462 72.5724 111.461 72.5846 111.461C72.5851 111.461 72.5856 111.462 72.5861 111.462C72.5865 111.462 72.587 111.462 72.5875 111.462C72.6298 111.463 72.5511 111.46 72.5933 111.462C72.5951 111.462 72.5973 111.462 72.5991 111.462C72.5996 111.462 72.6001 111.462 72.6006 111.462C72.6011 111.462 72.6015 111.462 72.602 111.462C72.6154 111.463 72.5915 111.462 72.6049 111.462C72.635 111.464 72.5807 111.461 72.6107 111.463C72.6278 111.463 72.6397 111.464 72.6566 111.465C72.7148 111.467 72.6439 111.464 72.7019 111.466C72.7277 111.468 72.6985 111.466 72.7243 111.467C72.7405 111.468 72.7305 111.468 72.7466 111.468L72.832 109.47C72.671 109.463 72.6315 109.462 72.4572 109.454C72.4038 109.452 72.3116 109.448 72.2549 109.446C72.1841 109.443 72.1167 109.44 72.0426 109.436L71.9572 111.435ZM72.832 109.47C72.7712 109.468 72.8484 109.471 72.7873 109.468C72.7349 109.466 72.7947 109.469 72.742 109.466C72.7166 109.465 72.7218 109.466 72.6961 109.464C72.6913 109.464 72.6952 109.464 72.6904 109.464C72.6863 109.464 72.6887 109.464 72.6846 109.464C72.6776 109.464 72.6799 109.464 72.6729 109.463C72.6632 109.463 72.671 109.463 72.6613 109.463C72.6534 109.463 72.6633 109.463 72.6555 109.463C72.655 109.463 72.6545 109.463 72.654 109.463C72.6535 109.463 72.653 109.463 72.6525 109.463C72.652 109.463 72.6516 109.463 72.6511 109.462C72.6506 109.462 72.6501 109.462 72.6496 109.462C72.581 109.459 72.6712 109.463 72.6024 109.46C72.602 109.46 72.6015 109.46 72.601 109.46C72.6005 109.46 72.6 109.46 72.5995 109.46C72.599 109.46 72.5985 109.46 72.598 109.46C72.5975 109.46 72.597 109.46 72.5965 109.46C72.5661 109.459 72.621 109.461 72.5906 109.46C72.5601 109.459 72.6151 109.461 72.5846 109.46C72.5841 109.46 72.5836 109.46 72.5831 109.46C72.5826 109.46 72.5821 109.46 72.5816 109.46C72.5811 109.459 72.5806 109.459 72.5801 109.459C72.5796 109.459 72.5791 109.459 72.5786 109.459C72.5669 109.459 72.5664 109.459 72.5547 109.458C72.5044 109.456 72.5083 109.456 72.4572 109.454C72.4007 109.452 72.4147 109.452 72.3573 109.45C72.2812 109.447 72.4271 109.453 72.351 109.45C72.3055 109.448 72.3902 109.451 72.3447 109.449C72.2975 109.447 72.3791 109.451 72.332 109.449C72.2871 109.447 72.3513 109.45 72.3064 109.448C72.2619 109.446 72.3253 109.449 72.2807 109.447C72.2548 109.446 72.2809 109.447 72.2549 109.446C72.2186 109.444 72.1872 109.443 72.15 109.441C72.0848 109.438 72.162 109.442 72.0966 109.439C72.0909 109.439 72.0889 109.438 72.0832 109.438C72.06 109.437 72.0996 109.439 72.0764 109.438C72.0746 109.438 72.0749 109.438 72.0731 109.438C72.0725 109.438 72.0719 109.438 72.0714 109.438C72.0708 109.438 72.0702 109.438 72.0697 109.438C72.0621 109.437 72.0502 109.437 72.0426 109.436L71.9572 111.435C72.039 111.438 71.9835 111.436 72.0646 111.439C72.0676 111.439 72.0648 111.439 72.0679 111.439C72.0715 111.44 72.0675 111.439 72.0712 111.44C72.0743 111.44 72.0747 111.44 72.0778 111.44C72.1094 111.441 72.0595 111.439 72.091 111.44C72.1197 111.442 72.0887 111.44 72.1173 111.441C72.1315 111.442 72.1555 111.443 72.1695 111.444C72.1766 111.444 72.368 111.452 72.3718 111.452C72.4254 111.455 72.3675 111.452 72.4208 111.454C72.4693 111.457 72.3845 111.453 72.433 111.455C72.44 111.455 72.4381 111.455 72.4451 111.456C72.4473 111.456 72.4671 111.456 72.4692 111.457C72.4985 111.458 72.488 111.457 72.517 111.459C72.5706 111.461 72.5108 111.458 72.5642 111.461C72.5938 111.462 72.5404 111.46 72.57 111.461C72.5727 111.461 72.5732 111.461 72.5759 111.461C72.5895 111.462 72.5739 111.461 72.5875 111.462C72.6362 111.464 72.5621 111.461 72.6107 111.463C72.6112 111.463 72.6117 111.463 72.6121 111.463C72.6126 111.463 72.6131 111.463 72.6136 111.463C72.6159 111.463 72.6142 111.463 72.6165 111.463C72.6189 111.463 72.6169 111.463 72.6194 111.463C72.6203 111.463 72.6213 111.463 72.6222 111.463C72.6244 111.463 72.6316 111.463 72.6337 111.464C72.6844 111.466 72.606 111.462 72.6566 111.465C72.6591 111.465 72.6997 111.466 72.7019 111.466C72.7211 111.467 72.7052 111.467 72.7243 111.467C72.7394 111.468 72.7315 111.468 72.7466 111.468L72.832 109.47Z" fill="#5B5F7D"/>
</svg>
