<svg width="50" height="50" viewBox="0 0 50 50" fill="none" xmlns="http://www.w3.org/2000/svg">
<path fill-rule="evenodd" clip-rule="evenodd" d="M35.0544 17.762C35.7034 18.3331 35.7785 19.3362 35.2223 20.0025L23.6153 33.9061C23.3372 34.2392 22.9374 34.4394 22.5105 34.4593C22.0837 34.4792 21.6678 34.3171 21.3615 34.0113L14.3973 27.0595C13.7844 26.4477 13.7706 25.4418 14.3664 24.8125C14.9622 24.1833 15.942 24.1692 16.5549 24.7809L22.3376 30.5533L32.8722 17.9343C33.4285 17.268 34.4055 17.1908 35.0544 17.762Z" fill="#4B8568"/>
<path fill-rule="evenodd" clip-rule="evenodd" d="M24.7616 3.17796C12.7542 3.17796 3.0952 12.8832 3.0952 24.7616C3.0952 36.64 12.7542 46.3452 24.7616 46.3452C36.769 46.3452 46.428 36.64 46.428 24.7616C46.428 12.8832 36.769 3.17796 24.7616 3.17796ZM0 24.7616C0 11.0442 11.1275 0 24.7616 0C38.3957 0 49.5232 11.0442 49.5232 24.7616C49.5232 38.4789 38.3957 49.5232 24.7616 49.5232C11.1275 49.5232 0 38.4789 0 24.7616Z" fill="#4B8568"/>
</svg>
