<svg width="49" height="51" viewBox="0 0 49 51" fill="none" xmlns="http://www.w3.org/2000/svg">
<path d="M2.57895 46.9472L11.8271 37.5103H41.2632C42.6311 37.5103 43.943 36.9558 44.9103 35.9688C45.8776 34.9817 46.421 33.643 46.421 32.2472V8.56295C46.421 7.16707 45.8776 5.82837 44.9103 4.84133C43.943 3.8543 42.6311 3.29979 41.2632 3.29979H7.73684C6.36888 3.29979 5.05695 3.8543 4.08966 4.84133C3.12237 5.82837 2.57895 7.16707 2.57895 8.56295V46.9472ZM2.57895 50.6682H0V8.56295C0 6.46913 0.81513 4.46108 2.26607 2.98053C3.71701 1.49998 5.6849 0.668213 7.73684 0.668213H41.2632C43.3151 0.668213 45.283 1.49998 46.7339 2.98053C48.1849 4.46108 49 6.46913 49 8.56295V32.2472C49 34.341 48.1849 36.349 46.7339 37.8296C45.283 39.3101 43.3151 40.1419 41.2632 40.1419H12.8947L2.57895 50.6682ZM11.6053 16.4577C12.6312 16.4577 13.6152 16.8736 14.3406 17.6138C15.0661 18.3541 15.4737 19.3581 15.4737 20.4051C15.4737 21.452 15.0661 22.456 14.3406 23.1963C13.6152 23.9365 12.6312 24.3524 11.6053 24.3524C10.5793 24.3524 9.59534 23.9365 8.86988 23.1963C8.14441 22.456 7.73684 21.452 7.73684 20.4051C7.73684 19.3581 8.14441 18.3541 8.86988 17.6138C9.59534 16.8736 10.5793 16.4577 11.6053 16.4577ZM11.6053 19.0893C11.2633 19.0893 10.9353 19.2279 10.6935 19.4746C10.4516 19.7214 10.3158 20.0561 10.3158 20.4051C10.3158 20.754 10.4516 21.0887 10.6935 21.3355C10.9353 21.5822 11.2633 21.7208 11.6053 21.7208C11.9473 21.7208 12.2752 21.5822 12.5171 21.3355C12.7589 21.0887 12.8947 20.754 12.8947 20.4051C12.8947 20.0561 12.7589 19.7214 12.5171 19.4746C12.2752 19.2279 11.9473 19.0893 11.6053 19.0893ZM24.5 16.4577C25.526 16.4577 26.5099 16.8736 27.2354 17.6138C27.9609 18.3541 28.3684 19.3581 28.3684 20.4051C28.3684 21.452 27.9609 22.456 27.2354 23.1963C26.5099 23.9365 25.526 24.3524 24.5 24.3524C23.474 24.3524 22.4901 23.9365 21.7646 23.1963C21.0391 22.456 20.6316 21.452 20.6316 20.4051C20.6316 19.3581 21.0391 18.3541 21.7646 17.6138C22.4901 16.8736 23.474 16.4577 24.5 16.4577ZM24.5 19.0893C24.158 19.0893 23.83 19.2279 23.5882 19.4746C23.3464 19.7214 23.2105 20.0561 23.2105 20.4051C23.2105 20.754 23.3464 21.0887 23.5882 21.3355C23.83 21.5822 24.158 21.7208 24.5 21.7208C24.842 21.7208 25.17 21.5822 25.4118 21.3355C25.6536 21.0887 25.7895 20.754 25.7895 20.4051C25.7895 20.0561 25.6536 19.7214 25.4118 19.4746C25.17 19.2279 24.842 19.0893 24.5 19.0893ZM37.3947 16.4577C38.4207 16.4577 39.4047 16.8736 40.1301 17.6138C40.8556 18.3541 41.2632 19.3581 41.2632 20.4051C41.2632 21.452 40.8556 22.456 40.1301 23.1963C39.4047 23.9365 38.4207 24.3524 37.3947 24.3524C36.3688 24.3524 35.3848 23.9365 34.6593 23.1963C33.9339 22.456 33.5263 21.452 33.5263 20.4051C33.5263 19.3581 33.9339 18.3541 34.6593 17.6138C35.3848 16.8736 36.3688 16.4577 37.3947 16.4577ZM37.3947 19.0893C37.0527 19.0893 36.7248 19.2279 36.4829 19.4746C36.2411 19.7214 36.1053 20.0561 36.1053 20.4051C36.1053 20.754 36.2411 21.0887 36.4829 21.3355C36.7248 21.5822 37.0527 21.7208 37.3947 21.7208C37.7367 21.7208 38.0647 21.5822 38.3065 21.3355C38.5484 21.0887 38.6842 20.754 38.6842 20.4051C38.6842 20.0561 38.5484 19.7214 38.3065 19.4746C38.0647 19.2279 37.7367 19.0893 37.3947 19.0893Z" fill="#808300"/>
</svg>
