<svg width="51" height="50" viewBox="0 0 51 50" fill="none" xmlns="http://www.w3.org/2000/svg">
<path fill-rule="evenodd" clip-rule="evenodd" d="M25.2854 3.23428C13.3194 3.23428 3.619 12.9347 3.619 24.9007C3.619 36.8667 13.3194 46.5671 25.2854 46.5671C37.2514 46.5671 46.9518 36.8667 46.9518 24.9007C46.9518 12.9347 37.2514 3.23428 25.2854 3.23428ZM0.523804 24.9007C0.523804 11.2252 11.6099 0.139084 25.2854 0.139084C38.9608 0.139084 50.047 11.2252 50.047 24.9007C50.047 38.5761 38.9608 49.6623 25.2854 49.6623C11.6099 49.6623 0.523804 38.5761 0.523804 24.9007Z" fill="#247BA0"/>
<path fill-rule="evenodd" clip-rule="evenodd" d="M25.2854 9.42469C26.1401 9.42469 26.833 10.1176 26.833 10.9723V25.2996C26.833 25.2997 26.833 25.2995 26.833 25.2996C26.8333 26.1203 27.1595 26.9077 27.7399 27.4879L33.3439 33.092C33.9483 33.6963 33.9483 34.6762 33.3439 35.2806C32.7395 35.885 31.7596 35.885 31.1553 35.2806L25.5516 29.6769C25.5515 29.6769 25.5516 29.677 25.5516 29.6769C24.3907 28.5163 23.7381 26.9419 23.7378 25.3003V10.9723C23.7378 10.1176 24.4307 9.42469 25.2854 9.42469Z" fill="#247BA0"/>
</svg>
