<svg width="51" height="51" viewBox="0 0 51 51" fill="none" xmlns="http://www.w3.org/2000/svg">
<path d="M25.333 4.53485C29.5308 4.53485 33.6342 5.77963 37.1246 8.11178C40.6149 10.4439 43.3352 13.7587 44.9416 17.6369C46.548 21.5151 46.9683 25.7826 46.1494 29.8997C45.3305 34.0168 43.3091 37.7986 40.3408 40.7669C37.3725 43.7351 33.5907 45.7565 29.4736 46.5755C25.3565 47.3944 21.0891 46.9741 17.2109 45.3677C13.3326 43.7613 10.0179 41.0409 7.68572 37.5506C5.35357 34.0603 4.10879 29.9568 4.10879 25.7591C4.10879 20.1301 6.34491 14.7316 10.3252 10.7513C14.3055 6.77097 19.704 4.53485 25.333 4.53485ZM25.333 0.997482C20.4356 0.997482 15.6482 2.44972 11.5762 5.17056C7.50419 7.8914 4.33043 11.7586 2.45629 16.2832C0.58214 20.8078 0.091778 25.7865 1.04721 30.5898C2.00264 35.3931 4.36095 39.8052 7.82392 43.2682C11.2869 46.7311 15.699 49.0894 20.5023 50.0449C25.3055 51.0003 30.2843 50.5099 34.8089 48.6358C39.3334 46.7616 43.2007 43.5879 45.9215 39.5159C48.6424 35.4438 50.0946 30.6564 50.0946 25.7591C50.0946 19.1919 47.4858 12.8937 42.8421 8.24998C38.1984 3.60628 31.9002 0.997482 25.333 0.997482Z" fill="#AF4B31"/>
<path d="M32.4077 18.6843V32.8338H18.2582V18.6843H32.4077ZM32.4077 15.1469H18.2582C17.32 15.1469 16.4203 15.5196 15.7569 16.183C15.0935 16.8464 14.7208 17.7461 14.7208 18.6843V32.8338C14.7208 33.772 15.0935 34.6717 15.7569 35.3351C16.4203 35.9985 17.32 36.3712 18.2582 36.3712H32.4077C33.3458 36.3712 34.2456 35.9985 34.909 35.3351C35.5724 34.6717 35.945 33.772 35.945 32.8338V18.6843C35.945 17.7461 35.5724 16.8464 34.909 16.183C34.2456 15.5196 33.3458 15.1469 32.4077 15.1469Z" fill="#AF4B31"/>
</svg>
